<svg xmlns="http://www.w3.org/2000/svg" xmlns:xlink="http://www.w3.org/1999/xlink" width="1366" zoomAndPan="magnify" viewBox="0 0 1024.5 576" height="768" preserveAspectRatio="xMidYMid meet" version="1.0"><defs><clipPath id="bf0ce58c03"><path d="M 0 0.140625 L 1024 0.140625 L 1024 575.859375 L 0 575.859375 Z M 0 0.140625 " clip-rule="nonzero"/></clipPath><radialGradient gradientTransform="matrix(1, 0, 0, 1, 0, 0.140508)" gradientUnits="userSpaceOnUse" r="1174.746438" cx="0" id="203cdea057" cy="0" fx="0" fy="0"><stop stop-opacity="1" stop-color="rgb(93.151855%, 91.679382%, 92.547607%)" offset="0"/><stop stop-opacity="1" stop-color="rgb(92.895508%, 91.470337%, 92.634583%)" offset="0.015625"/><stop stop-opacity="1" stop-color="rgb(92.674255%, 91.290283%, 92.707825%)" offset="0.0273438"/><stop stop-opacity="1" stop-color="rgb(92.454529%, 91.111755%, 92.782593%)" offset="0.0390625"/><stop stop-opacity="1" stop-color="rgb(92.234802%, 90.931702%, 92.855835%)" offset="0.0507812"/><stop stop-opacity="1" stop-color="rgb(92.01355%, 90.753174%, 92.929077%)" offset="0.0625"/><stop stop-opacity="1" stop-color="rgb(91.793823%, 90.57312%, 93.003845%)" offset="0.0742188"/><stop stop-opacity="1" stop-color="rgb(91.572571%, 90.394592%, 93.077087%)" offset="0.0859375"/><stop stop-opacity="1" stop-color="rgb(91.352844%, 90.214539%, 93.151855%)" offset="0.0976562"/><stop stop-opacity="1" stop-color="rgb(91.133118%, 90.036011%, 93.225098%)" offset="0.109375"/><stop stop-opacity="1" stop-color="rgb(90.911865%, 89.855957%, 93.29834%)" offset="0.121094"/><stop stop-opacity="1" stop-color="rgb(90.692139%, 89.677429%, 93.373108%)" offset="0.132812"/><stop stop-opacity="1" stop-color="rgb(90.470886%, 89.497375%, 93.44635%)" offset="0.144531"/><stop stop-opacity="1" stop-color="rgb(90.25116%, 89.318848%, 93.519592%)" offset="0.15625"/><stop stop-opacity="1" stop-color="rgb(90.031433%, 89.138794%, 93.59436%)" offset="0.167969"/><stop stop-opacity="1" stop-color="rgb(89.810181%, 88.960266%, 93.667603%)" offset="0.179688"/><stop stop-opacity="1" stop-color="rgb(89.590454%, 88.780212%, 93.742371%)" offset="0.191406"/><stop stop-opacity="1" stop-color="rgb(89.370728%, 88.601685%, 93.815613%)" offset="0.203125"/><stop stop-opacity="1" stop-color="rgb(89.149475%, 88.421631%, 93.888855%)" offset="0.214844"/><stop stop-opacity="1" stop-color="rgb(88.929749%, 88.243103%, 93.963623%)" offset="0.226562"/><stop stop-opacity="1" stop-color="rgb(88.708496%, 88.063049%, 94.036865%)" offset="0.238281"/><stop stop-opacity="1" stop-color="rgb(88.48877%, 87.884521%, 94.110107%)" offset="0.25"/><stop stop-opacity="1" stop-color="rgb(88.194275%, 87.644958%, 94.20929%)" offset="0.261719"/><stop stop-opacity="1" stop-color="rgb(87.828064%, 87.345886%, 94.332886%)" offset="0.28125"/><stop stop-opacity="1" stop-color="rgb(87.460327%, 87.04834%, 94.454956%)" offset="0.300781"/><stop stop-opacity="1" stop-color="rgb(87.09259%, 86.749268%, 94.578552%)" offset="0.320312"/><stop stop-opacity="1" stop-color="rgb(86.726379%, 86.450195%, 94.700623%)" offset="0.339844"/><stop stop-opacity="1" stop-color="rgb(86.358643%, 86.151123%, 94.824219%)" offset="0.359375"/><stop stop-opacity="1" stop-color="rgb(86.029053%, 85.882568%, 94.935608%)" offset="0.378906"/><stop stop-opacity="1" stop-color="rgb(85.734558%, 85.643005%, 95.033264%)" offset="0.394531"/><stop stop-opacity="1" stop-color="rgb(85.441589%, 85.403442%, 95.132446%)" offset="0.410156"/><stop stop-opacity="1" stop-color="rgb(85.147095%, 85.165405%, 95.230103%)" offset="0.425781"/><stop stop-opacity="1" stop-color="rgb(84.854126%, 84.925842%, 95.329285%)" offset="0.441406"/><stop stop-opacity="1" stop-color="rgb(84.559631%, 84.686279%, 95.426941%)" offset="0.457031"/><stop stop-opacity="1" stop-color="rgb(84.266663%, 84.448242%, 95.526123%)" offset="0.472656"/><stop stop-opacity="1" stop-color="rgb(83.972168%, 84.208679%, 95.623779%)" offset="0.488281"/><stop stop-opacity="1" stop-color="rgb(83.71582%, 83.999634%, 95.710754%)" offset="0.503906"/><stop stop-opacity="1" stop-color="rgb(83.494568%, 83.81958%, 95.783997%)" offset="0.515625"/><stop stop-opacity="1" stop-color="rgb(83.274841%, 83.641052%, 95.858765%)" offset="0.527344"/><stop stop-opacity="1" stop-color="rgb(83.055115%, 83.460999%, 95.932007%)" offset="0.539062"/><stop stop-opacity="1" stop-color="rgb(82.833862%, 83.282471%, 96.005249%)" offset="0.550781"/><stop stop-opacity="1" stop-color="rgb(82.614136%, 83.102417%, 96.080017%)" offset="0.5625"/><stop stop-opacity="1" stop-color="rgb(82.392883%, 82.923889%, 96.153259%)" offset="0.574219"/><stop stop-opacity="1" stop-color="rgb(82.173157%, 82.743835%, 96.228027%)" offset="0.585938"/><stop stop-opacity="1" stop-color="rgb(81.95343%, 82.565308%, 96.30127%)" offset="0.597656"/><stop stop-opacity="1" stop-color="rgb(81.732178%, 82.385254%, 96.374512%)" offset="0.609375"/><stop stop-opacity="1" stop-color="rgb(81.512451%, 82.206726%, 96.44928%)" offset="0.621094"/><stop stop-opacity="1" stop-color="rgb(81.217957%, 81.967163%, 96.546936%)" offset="0.632812"/><stop stop-opacity="1" stop-color="rgb(80.851746%, 81.668091%, 96.670532%)" offset="0.652344"/><stop stop-opacity="1" stop-color="rgb(80.484009%, 81.370544%, 96.792603%)" offset="0.671875"/><stop stop-opacity="1" stop-color="rgb(80.152893%, 81.100464%, 96.903992%)" offset="0.691406"/><stop stop-opacity="1" stop-color="rgb(79.859924%, 80.860901%, 97.001648%)" offset="0.707031"/><stop stop-opacity="1" stop-color="rgb(79.56543%, 80.622864%, 97.10083%)" offset="0.722656"/><stop stop-opacity="1" stop-color="rgb(79.272461%, 80.383301%, 97.198486%)" offset="0.738281"/><stop stop-opacity="1" stop-color="rgb(79.016113%, 80.174255%, 97.285461%)" offset="0.753906"/><stop stop-opacity="1" stop-color="rgb(78.794861%, 79.995728%, 97.358704%)" offset="0.765625"/><stop stop-opacity="1" stop-color="rgb(78.575134%, 79.815674%, 97.433472%)" offset="0.777344"/><stop stop-opacity="1" stop-color="rgb(78.353882%, 79.637146%, 97.506714%)" offset="0.789062"/><stop stop-opacity="1" stop-color="rgb(78.134155%, 79.457092%, 97.581482%)" offset="0.800781"/><stop stop-opacity="1" stop-color="rgb(77.914429%, 79.278564%, 97.654724%)" offset="0.8125"/><stop stop-opacity="1" stop-color="rgb(77.619934%, 79.039001%, 97.75238%)" offset="0.824219"/><stop stop-opacity="1" stop-color="rgb(77.252197%, 78.739929%, 97.875977%)" offset="0.84375"/><stop stop-opacity="1" stop-color="rgb(76.922607%, 78.471375%, 97.987366%)" offset="0.863281"/><stop stop-opacity="1" stop-color="rgb(76.664734%, 78.262329%, 98.072815%)" offset="0.878906"/><stop stop-opacity="1" stop-color="rgb(76.445007%, 78.082275%, 98.146057%)" offset="0.890625"/><stop stop-opacity="1" stop-color="rgb(76.225281%, 77.903748%, 98.220825%)" offset="0.902344"/><stop stop-opacity="1" stop-color="rgb(75.930786%, 77.664185%, 98.318481%)" offset="0.914062"/><stop stop-opacity="1" stop-color="rgb(75.59967%, 77.39563%, 98.429871%)" offset="0.933594"/><stop stop-opacity="1" stop-color="rgb(75.343323%, 77.186584%, 98.51532%)" offset="0.949219"/><stop stop-opacity="1" stop-color="rgb(75.048828%, 76.947021%, 98.614502%)" offset="0.960938"/><stop stop-opacity="1" stop-color="rgb(74.682617%, 76.647949%, 98.736572%)" offset="0.980469"/><stop stop-opacity="1" stop-color="rgb(74.499512%, 76.499939%, 98.799133%)" offset="1"/></radialGradient><clipPath id="97b6cee8dc"><path d="M 307.25 92.976562 L 716.550781 92.976562 L 716.550781 482.785156 L 307.25 482.785156 Z M 307.25 92.976562 " clip-rule="nonzero"/></clipPath></defs><g clip-path="url(#bf0ce58c03)"><path fill="url(#203cdea057)" d="M 0 0.140625 L 0 575.859375 L 1024 575.859375 L 1024 0.140625 Z M 0 0.140625 " fill-rule="nonzero"/></g><g clip-path="url(#97b6cee8dc)"><path fill="#361676" d="M 677.808594 326.824219 C 678.003906 323.480469 678.25 320.148438 678.25 316.769531 C 678.25 255.609375 643.207031 198.332031 588.722656 169.578125 C 588.652344 127.324219 554.265625 92.976562 512 92.976562 C 469.867188 92.976562 435.578125 127.121094 435.296875 169.1875 C 381.871094 196.898438 345.75 252.644531 345.75 316.769531 C 345.75 320.289062 345.898438 323.65625 346.117188 326.933594 C 323.019531 340.167969 307.386719 365.023438 307.386719 393.5 C 307.386719 435.8125 341.804688 470.230469 384.117188 470.230469 C 398.824219 470.230469 412.878906 466.113281 425.085938 458.351562 C 450.921875 474.242188 480.90625 483.019531 512 483.019531 C 542.800781 483.019531 572.726562 474.414062 598.902344 458.261719 C 610.777344 465.800781 624.804688 470.230469 639.882812 470.230469 C 682.191406 470.230469 716.613281 435.8125 716.613281 393.5 C 716.613281 365.605469 701.835938 340.441406 677.808594 326.824219 Z M 665.460938 316.769531 C 665.460938 339.496094 660.585938 361.363281 650.976562 381.761719 C 649.910156 384.023438 650.265625 386.703125 651.886719 388.617188 C 653.503906 390.527344 656.097656 391.320312 658.496094 390.636719 L 670.132812 387.363281 C 671.746094 386.882812 673.453125 387.074219 674.9375 387.898438 C 676.433594 388.726562 677.511719 390.085938 677.992188 391.773438 C 678.464844 393.386719 678.273438 395.09375 677.457031 396.578125 C 676.628906 398.074219 675.269531 399.152344 673.613281 399.621094 L 628.585938 412.492188 C 628.335938 412.582031 627.875 412.683594 627.09375 412.683594 C 624.332031 412.683594 621.890625 410.917969 621.015625 408.292969 L 608.226562 369.925781 C 607.6875 368.308594 607.808594 366.582031 608.578125 365.054688 C 609.34375 363.527344 610.667969 362.382812 612.316406 361.832031 C 613.917969 361.292969 615.625 361.421875 617.140625 362.183594 C 618.6875 362.957031 619.84375 364.28125 620.382812 365.910156 L 625.175781 380.363281 C 625.980469 382.796875 628.175781 384.519531 630.738281 384.722656 C 633.285156 384.902344 635.734375 383.578125 636.921875 381.296875 C 647.371094 361.210938 652.671875 339.503906 652.671875 316.769531 C 652.671875 267.375 626.441406 221.714844 583.921875 196.191406 C 585.441406 192.078125 586.632812 187.820312 587.433594 183.414062 C 635.09375 210.71875 665.460938 262.082031 665.460938 316.769531 Z M 384.117188 316.769531 C 384.117188 270.828125 408.585938 230.328125 445.429688 207.816406 C 459.019531 231.472656 484.414062 246.4375 512 246.4375 C 540.429688 246.4375 565.238281 230.859375 578.492188 207.828125 C 616.5 231.179688 639.882812 272.320312 639.882812 316.769531 C 597.574219 316.769531 563.152344 351.191406 563.152344 393.5 C 563.152344 406.527344 566.441406 418.796875 572.1875 429.550781 C 553.640625 439.417969 532.980469 444.65625 512 444.65625 C 490.996094 444.65625 470.324219 439.195312 451.945312 429.359375 C 457.765625 418.367188 460.847656 406.117188 460.847656 393.5 C 460.847656 351.191406 426.425781 316.769531 384.117188 316.769531 Z M 512 105.765625 C 547.257812 105.765625 575.941406 134.449219 575.941406 169.707031 C 575.941406 204.964844 547.257812 233.648438 512 233.648438 C 489.097656 233.648438 468.097656 221.199219 456.742188 201.605469 C 467.023438 196.675781 478.066406 193.039062 489.679688 191 C 484.183594 199.171875 485.789062 210.367188 493.589844 216.621094 C 501.539062 223.066406 514.191406 221.683594 520.574219 213.664062 L 546.132812 181.71875 C 551.753906 174.761719 551.753906 164.660156 546.152344 157.722656 L 520.566406 125.738281 C 517.371094 121.75 512.800781 119.242188 507.710938 118.679688 C 502.613281 118.105469 497.605469 119.570312 493.609375 122.773438 C 485.363281 129.390625 484.027344 141.480469 490.628906 149.710938 L 492.230469 151.707031 C 476.851562 153.523438 462.15625 157.417969 448.402344 163.085938 C 451.722656 130.929688 478.972656 105.765625 512 105.765625 Z M 358.539062 316.769531 C 358.539062 234.542969 422.871094 167.210938 505 163.496094 C 507.394531 163.386719 509.539062 161.941406 510.527344 159.75 C 511.519531 157.5625 511.199219 155 509.703125 153.121094 L 500.617188 141.726562 C 499.558594 140.402344 499.078125 138.738281 499.261719 137.039062 C 499.449219 135.335938 500.285156 133.816406 501.617188 132.746094 C 502.9375 131.6875 504.609375 131.207031 506.300781 131.390625 C 508.003906 131.578125 509.523438 132.414062 510.585938 133.738281 L 536.183594 165.734375 C 538.074219 168.074219 538.074219 171.34375 536.164062 173.707031 L 510.582031 205.691406 C 509.371094 207.199219 507.5625 208.070312 505.605469 208.070312 C 504.578125 208.070312 503.054688 207.828125 501.617188 206.664062 C 498.867188 204.457031 498.417969 200.421875 500.625 197.671875 L 509.257812 186.867188 C 510.835938 184.898438 511.097656 182.1875 509.941406 179.941406 C 508.785156 177.703125 506.460938 176.402344 503.898438 176.488281 C 429.558594 180.742188 371.328125 242.363281 371.328125 316.769531 C 371.328125 317.15625 371.359375 317.539062 371.359375 317.921875 C 366.980469 318.65625 362.734375 319.765625 358.640625 321.210938 C 358.597656 319.746094 358.539062 318.285156 358.539062 316.769531 Z M 384.117188 457.441406 C 348.859375 457.441406 320.175781 428.757812 320.175781 393.5 C 320.175781 358.242188 348.859375 329.558594 384.117188 329.558594 C 419.375 329.558594 448.058594 358.242188 448.058594 393.5 C 448.058594 403.785156 445.5 413.734375 440.863281 422.722656 C 431.285156 416.316406 422.527344 408.636719 414.9375 399.855469 C 419.238281 400.113281 423.570312 398.9375 427.179688 396.371094 C 431.382812 393.394531 434.15625 388.949219 435 383.859375 C 436.722656 373.417969 429.65625 363.527344 419.257812 361.804688 L 380.945312 355.417969 C 371.679688 353.800781 362.464844 359.324219 359.519531 368.261719 L 346.730469 406.628906 C 345.105469 411.5 345.484375 416.707031 347.785156 421.289062 C 350.082031 425.863281 354.03125 429.269531 358.886719 430.886719 C 360.804688 431.539062 362.835938 431.867188 364.933594 431.867188 C 372.484375 431.867188 379.230469 427.480469 382.351562 420.734375 C 391.445312 432.03125 401.90625 441.9375 413.34375 450.382812 C 404.390625 455.011719 394.449219 457.441406 384.117188 457.441406 Z M 512 470.230469 C 461.609375 470.230469 414.308594 445.308594 385.480469 403.554688 C 384.105469 401.558594 381.707031 400.515625 379.308594 400.859375 C 376.902344 401.207031 374.910156 402.882812 374.148438 405.191406 L 371.019531 414.691406 C 369.921875 418.003906 365.949219 419.789062 362.933594 418.765625 C 361.296875 418.222656 359.972656 417.078125 359.203125 415.546875 C 358.4375 414.027344 358.316406 412.292969 358.851562 410.675781 L 371.648438 372.292969 C 372.632812 369.320312 375.675781 367.503906 378.785156 368.027344 L 417.15625 374.421875 C 420.609375 374.992188 422.949219 378.289062 422.371094 381.773438 C 422.097656 383.46875 421.171875 384.953125 419.777344 385.9375 C 418.402344 386.914062 416.71875 387.292969 415.027344 387 L 401.214844 384.695312 C 398.664062 384.269531 396.167969 385.394531 394.792969 387.535156 C 393.414062 389.675781 393.433594 392.433594 394.847656 394.554688 C 421.144531 433.933594 464.9375 457.441406 512 457.441406 C 535.453125 457.441406 558.542969 451.484375 579.203125 440.28125 C 581.867188 443.734375 584.824219 446.945312 588.03125 449.890625 C 564.886719 463.183594 538.796875 470.230469 512 470.230469 Z M 639.882812 457.441406 C 604.625 457.441406 575.941406 428.757812 575.941406 393.5 C 575.941406 358.472656 604.253906 329.96875 639.191406 329.589844 C 638.132812 340.277344 635.796875 350.6875 632.089844 360.707031 C 630.332031 356.363281 627.082031 352.847656 622.84375 350.738281 C 618.25 348.453125 613.066406 348.089844 608.257812 349.707031 C 603.390625 351.332031 599.445312 354.738281 597.152344 359.3125 C 594.847656 363.894531 594.472656 369.101562 596.097656 373.972656 L 608.882812 412.339844 C 611.5 420.191406 618.8125 425.472656 627.09375 425.472656 C 629.101562 425.472656 630.964844 425.191406 632.371094 424.710938 L 677.109375 411.929688 C 682.050781 410.527344 686.152344 407.273438 688.644531 402.773438 C 691.125 398.277344 691.707031 393.097656 690.28125 388.246094 C 688.882812 383.304688 685.628906 379.203125 681.125 376.710938 C 677 374.433594 672.308594 373.761719 667.804688 374.761719 C 671.910156 363.820312 674.660156 352.515625 676.347656 340.96875 C 693.484375 352.796875 703.824219 372.195312 703.824219 393.5 C 703.824219 428.757812 675.140625 457.441406 639.882812 457.441406 Z M 639.882812 457.441406 " fill-opacity="1" fill-rule="nonzero"/></g><path fill="#361676" d="M 512 361.53125 C 504.945312 361.53125 499.210938 355.796875 499.210938 348.742188 L 486.421875 348.742188 C 486.421875 360.621094 494.609375 370.554688 505.605469 373.410156 L 505.605469 387.105469 L 518.394531 387.105469 L 518.394531 373.410156 C 529.390625 370.554688 537.578125 360.621094 537.578125 348.742188 C 537.578125 334.636719 526.105469 323.164062 512 323.164062 C 504.945312 323.164062 499.210938 317.429688 499.210938 310.378906 C 499.210938 303.324219 504.945312 297.589844 512 297.589844 C 519.050781 297.589844 524.789062 303.324219 524.789062 310.378906 L 537.578125 310.378906 C 537.578125 298.496094 529.390625 288.566406 518.394531 285.707031 L 518.394531 272.011719 L 505.605469 272.011719 L 505.605469 285.707031 C 494.609375 288.566406 486.421875 298.496094 486.421875 310.378906 C 486.421875 324.484375 497.894531 335.953125 512 335.953125 C 519.050781 335.953125 524.789062 341.691406 524.789062 348.742188 C 524.789062 355.796875 519.050781 361.53125 512 361.53125 Z M 512 361.53125 " fill-opacity="1" fill-rule="nonzero"/></svg>